<svg width="272px" height="300px" viewBox="0 0 272 300" version="1.1" xmlns="http://www.w3.org/2000/svg" xmlns:xlink="http://www.w3.org/1999/xlink">
    <!-- Generator: Sketch 44.1 (41455) - http://www.bohemiancoding.com/sketch -->
    <desc>Created with Sketch.</desc>
    <defs></defs>
    <g id="Page-1" stroke="none" stroke-width="1" fill="none" fill-rule="evenodd" opacity="0.6">
        <g id="Mobile" transform="translate(0.000000, -373.000000)">
            <g id="메뉴" transform="translate(-26.000000, 375.000000)">
                <circle id="Oval-2" stroke="#DFE2E7" stroke-width="4" cx="148" cy="148" r="148"></circle>
                <path d="M147.622951,242.245902 C199.881764,242.245902 242.245902,199.881764 242.245902,147.622951 C242.245902,95.3641381 199.881764,53 147.622951,53 C95.3641381,53 53,95.3641381 53,147.622951 C53,164.915085 57.6384885,181.123842 65.7391,195.072856 C82.1194658,223.279364 112.656272,242.245902 147.622951,242.245902 Z" id="Oval-2" stroke="#DFE2E7" stroke-width="4"></path>
                <circle id="Oval-2" stroke="#DFE2E7" stroke-width="4" fill="#464B58" cx="148.098361" cy="148.098361" r="46.0983607"></circle>
                <g id="Group" transform="translate(39.000000, 105.000000)">
                    <circle id="Oval" fill="#464B58" cx="108.5" cy="43.5" r="43.5"></circle>
                    <text id="P-SS.D.A" font-family="Baskerville" font-size="40" font-weight="normal" line-spacing="28">
                        <tspan x="29" y="66" fill="#000000"> </tspan>
                        <tspan x="39" y="66" fill="#A2B2DC">P</tspan>
                        <tspan x="76.6757812" y="77.4375" font-size="10" fill="#464B58"> </tspan>
                        <tspan x="64" y="66" fill="#FFFFFF">SS.D</tspan>
                        <tspan x="143.648438" y="66" letter-spacing="1" fill="#FFFFFF">.</tspan>
                        <tspan x="154.648438" y="66" fill="#D553BB">A</tspan>
                        <tspan x="181.738281" y="66" fill="#000000"> </tspan>
                    </text>
                    <text id="DIGITAL-AGENCY" font-family="Baskerville" font-size="18" font-weight="normal">
                        <tspan x="31.4023438" y="81" fill="#A2B2DC">DIGIT</tspan>
                        <tspan x="82.7568359" y="81" fill="#FFFFFF">AL AG</tspan>
                        <tspan x="135.719727" y="81" fill="#D453BB">ENCY</tspan>
                    </text>
                </g>
            </g>
        </g>
    </g>
</svg>