<svg width="83px" height="1657px" viewBox="0 0 83 1657" version="1.1" xmlns="http://www.w3.org/2000/svg" xmlns:xlink="http://www.w3.org/1999/xlink" preserveAspectRatio="none">
    <!-- Generator: Sketch 44.1 (41455) - http://www.bohemiancoding.com/sketch -->
    <desc>Created with Sketch.</desc>
    <defs></defs>
    <g id="Page-1" stroke="none" stroke-width="1" fill="none" fill-rule="evenodd">
        <g id="Desktop" transform="translate(-2962.000000, -1275.000000)">
            <g id="line1" transform="translate(3019.000000, 2103.500000) rotate(180.000000) translate(-3019.000000, -2103.500000) translate(2939.000000, 1275.000000)">
                <g id="Group-3" transform="translate(57.000000, 0.000000)">
                    <path d="M52.2114898,0.5 C59.1298419,15.7660689 62.7965086,24.2660689 63.2114898,26 C63.8339617,28.6008966 62.9164438,36.4640442 61.656644,39.9650252 C61.0350725,41.6923711 60.3752812,43.4988456 59.5876157,45.5570711 C19.8625386,149.361495 -1.01334088e-13,229.012408 -9.9475983e-14,284.509808 C-9.63446757e-14,378.034868 75.2114898,459.777161 75.2114898,635.363552 C75.2114898,810.949942 -9.91176224e-14,893.570851 -9.9475983e-14,1022.39119 C-9.9475983e-14,1153.18313 75.2114898,1198.7653 75.2114898,1381.05083 C75.2114898,1488.63163 66.9043929,1574.23711 50.290199,1637.86725 C48.8546908,1643.36505 49.4951211,1649.74264 52.2114898,1657 C49.6659761,1652.58166 47.8326428,1648.915 46.7114898,1646 C45.5903369,1643.085 44.7570035,1640.085 44.2114898,1637 C63.2110432,646.224086 73.4099326,114.153552 74.8081581,40.788398 C74.9714579,32.2200257 67.4392352,18.7905597 52.2114898,0.5 Z" id="Line" fill="#904284" transform="translate(37.605745, 828.750000) scale(-1, 1) translate(-37.605745, -828.750000) "></path>
                    <path d="M75.2114898,6 C25.0704966,129.323166 -2.08753819e-15,222.159769 0,284.509808 C3.13130729e-15,378.034868 75.2114898,459.777161 75.2114898,635.363552 C75.2114898,810.949942 3.58360632e-16,893.570851 0,1022.39119 C0,1153.18313 75.2114898,1198.7653 75.2114898,1381.05083 C75.2114898,1496.25992 65.0538711,1587.19541 46,1652" id="Line" stroke="#FFFFFF" stroke-width="6" stroke-linecap="square"></path>
                </g>
            </g>
        </g>
    </g>
</svg>