<?xml version="1.0" standalone="no"?>
<!DOCTYPE svg PUBLIC "-//W3C//DTD SVG 20010904//EN"
 "http://www.w3.org/TR/2001/REC-SVG-20010904/DTD/svg10.dtd">
<svg version="1.0" xmlns="http://www.w3.org/2000/svg"
 width="403.000000pt" height="309.000000pt" viewBox="0 0 403.000000 309.000000"
 preserveAspectRatio="xMidYMid meet">
<metadata>
Created by potrace 1.14, written by Peter Selinger 2001-2017
</metadata>
<g transform="translate(0.000000,309.000000) scale(0.100000,-0.100000)"
fill="#000000" stroke="none">
<path d="M1070 2735 c-55 -30 -138 -55 -179 -55 -29 0 -31 -2 -31 -37 0 -21
-5 -45 -10 -53 -8 -12 -13 -11 -33 8 -13 12 -28 22 -35 22 -24 0 -120 -49
-201 -103 -52 -35 -102 -60 -134 -67 -27 -6 -71 -19 -95 -30 -36 -16 -43 -23
-34 -32 10 -10 17 -10 32 -1 14 10 70 9 252 -2 262 -17 291 -19 473 -46 110
-16 163 -18 360 -12 221 6 231 7 261 30 17 12 36 23 43 23 6 0 50 -15 97 -34
76 -31 84 -33 79 -15 -4 10 -2 19 4 19 18 0 494 -91 579 -111 46 -10 112 -33
147 -49 35 -17 75 -30 89 -30 18 0 25 -6 28 -22 3 -26 30 -37 226 -91 123 -34
149 -35 90 -4 l-33 17 54 -5 c29 -3 112 -19 184 -36 72 -16 135 -28 141 -26 5
2 -18 14 -52 26 -34 13 -78 39 -98 57 -19 19 -43 34 -52 34 -9 1 -39 9 -67 19
-117 44 -130 50 -108 51 34 0 175 -47 298 -100 60 -26 121 -51 135 -55 23 -7
24 -6 11 9 -12 15 -13 19 -1 26 10 6 4 14 -24 30 -20 13 -35 24 -33 26 2 2 55
-3 117 -11 134 -18 137 -18 124 -6 -5 5 -43 19 -84 32 -41 12 -67 24 -57 27 9
2 17 7 17 12 0 13 -148 59 -245 76 -50 8 -99 18 -110 21 -20 6 -20 5 -1 -16
19 -21 19 -21 0 -21 -24 0 -169 35 -209 50 l-30 12 25 13 c31 17 27 18 -103
39 -125 20 -248 61 -310 103 l-49 33 -35 -21 c-37 -23 -84 -21 -119 6 -17 13
-16 13 16 5 23 -7 36 -7 38 0 2 6 11 17 19 26 8 8 13 18 9 21 -3 3 -73 8 -156
11 -82 3 -147 8 -145 12 3 5 34 13 70 19 71 13 122 29 93 30 -10 1 -97 -4
-194 -10 -97 -6 -193 -8 -213 -4 l-36 7 50 20 c27 11 52 21 54 23 2 2 -44 1
-103 -2 -112 -6 -133 2 -78 31 25 14 21 15 -73 16 -55 0 -119 5 -142 10 -33 8
-54 6 -103 -10 -35 -11 -81 -20 -104 -20 -22 0 -81 -7 -129 -16 -49 -8 -94
-13 -100 -11 -7 2 7 15 30 30 48 30 48 31 58 75 l7 32 -59 -1 c-41 0 -71 -7
-103 -24z"/>
<path d="M1520 1969 c-300 -30 -575 -122 -648 -218 -45 -59 -40 -76 23 -78 28
-1 56 -2 64 -2 9 -1 11 -9 6 -28 -11 -47 -34 -73 -82 -94 -38 -16 -43 -22 -33
-34 18 -22 11 -25 -69 -38 -39 -6 -71 -13 -71 -16 0 -3 26 -19 57 -36 31 -16
56 -34 57 -40 0 -5 -17 -21 -37 -34 -20 -13 -35 -26 -33 -29 3 -2 26 3 53 12
41 13 207 46 234 46 18 0 8 -21 -26 -59 -19 -21 -35 -41 -35 -44 0 -2 10 -8
23 -11 22 -6 22 -7 3 -21 -11 -8 -28 -15 -39 -15 -10 0 -15 -4 -12 -10 3 -5
22 -10 41 -10 42 0 46 -21 7 -40 l-28 -14 25 -3 c156 -21 243 -35 255 -39 30
-12 14 -22 -25 -17 -27 4 -40 2 -40 -6 0 -6 -16 -21 -35 -33 -46 -27 -38 -33
24 -18 51 12 91 3 91 -22 0 -9 -3 -9 -12 0 -15 15 -48 15 -68 2 -13 -9 -12
-13 9 -30 20 -17 38 -20 135 -20 114 0 166 -12 112 -26 -15 -3 -45 -4 -66 -1
-25 3 -46 0 -57 -9 -10 -7 -25 -14 -33 -14 -17 0 -77 -46 -70 -53 3 -3 59 6
125 19 143 28 174 30 128 7 -54 -27 -38 -32 38 -13 70 18 72 18 137 -2 36 -11
91 -31 120 -44 48 -21 53 -26 41 -40 -7 -8 -34 -26 -60 -40 -62 -31 -69 -44
-25 -44 25 0 36 -4 36 -15 0 -26 18 -17 80 40 64 59 70 61 119 44 25 -9 31
-16 31 -39 0 -30 -14 -47 -25 -30 -11 19 -41 10 -70 -20 -35 -37 -29 -45 18
-25 20 8 47 15 59 15 13 0 29 9 36 21 17 27 88 59 132 58 19 0 49 -6 65 -13
l30 -14 -70 -31 c-38 -18 -82 -38 -97 -46 l-26 -13 15 36 c13 32 13 35 0 22
-23 -24 -30 -69 -12 -76 8 -4 21 -1 29 5 15 13 26 5 26 -21 0 -18 2 -18 40 2
44 22 54 25 45 10 -13 -21 12 -8 58 29 56 47 121 74 167 69 l33 -3 -1 -70 c-3
-93 7 -108 45 -69 27 30 31 31 173 42 125 10 145 10 153 -3 6 -12 16 -7 46 25
31 33 45 40 75 40 20 0 50 7 66 15 27 14 30 14 44 -7 15 -22 16 -22 16 -2 0
11 -5 25 -11 31 -26 26 -1 41 81 49 62 5 89 12 113 30 77 57 138 74 329 93 47
5 102 17 121 26 40 19 130 102 125 115 -2 5 -19 22 -39 37 -50 38 -339 295
-363 322 -11 11 -16 24 -13 27 6 6 21 1 151 -46 46 -17 70 -20 113 -14 l55 7
-28 28 c-45 45 -385 253 -529 324 -286 141 -544 199 -1055 239 -256 20 -477
26 -590 15z m205 -371 c3 -7 11 -56 18 -108 16 -109 39 -164 99 -236 126 -152
299 -235 488 -238 223 -2 343 64 530 294 118 145 106 138 187 101 79 -37 98
-53 124 -101 11 -19 29 -47 41 -62 19 -24 20 -30 8 -58 -39 -93 -291 -216
-557 -269 -87 -18 -138 -21 -376 -21 l-275 0 -104 36 c-209 73 -386 182 -540
334 -70 68 -78 80 -78 113 0 84 34 110 228 172 184 59 200 62 207 43z m407
-87 c20 -21 50 -68 68 -105 31 -62 32 -69 21 -106 -6 -21 -19 -46 -27 -55 -15
-14 -20 -13 -63 11 -75 43 -151 104 -163 129 -9 20 -6 32 22 75 33 52 73 90
95 90 7 0 28 -17 47 -39z"/>
</g>
</svg>
