<?xml version="1.0" standalone="no"?>
<!DOCTYPE svg PUBLIC "-//W3C//DTD SVG 20010904//EN"
 "http://www.w3.org/TR/2001/REC-SVG-20010904/DTD/svg10.dtd">
<svg version="1.0" xmlns="http://www.w3.org/2000/svg"
 width="403.000000pt" height="309.000000pt" viewBox="0 0 403.000000 309.000000"
 preserveAspectRatio="xMidYMid meet">
<metadata>
Created by potrace 1.14, written by Peter Selinger 2001-2017
</metadata>
<g transform="translate(0.000000,309.000000) scale(0.100000,-0.100000)"
fill="#000000" stroke="none">
<path d="M2915 2728 c10 -44 10 -45 58 -75 23 -15 37 -28 30 -30 -6 -2 -51 3
-100 11 -48 9 -107 16 -129 16 -23 0 -69 9 -104 20 -49 16 -70 18 -103 10 -23
-5 -87 -10 -142 -10 -94 -1 -98 -2 -72 -16 54 -29 33 -37 -79 -31 -59 3 -105
4 -103 2 2 -2 27 -12 54 -23 l50 -20 -36 -7 c-20 -4 -116 -2 -213 4 -97 6
-184 11 -194 10 -29 -1 22 -17 93 -30 36 -6 67 -14 70 -19 2 -4 -63 -9 -145
-12 -83 -3 -153 -8 -156 -11 -4 -3 1 -13 9 -21 8 -9 17 -20 19 -26 2 -7 15 -7
38 0 32 8 33 8 16 -5 -35 -27 -82 -29 -119 -6 l-35 21 -49 -33 c-62 -42 -185
-83 -310 -103 -130 -21 -134 -22 -103 -39 l25 -13 -30 -12 c-40 -15 -185 -50
-209 -50 -19 0 -19 0 0 21 19 21 19 22 -1 16 -11 -3 -60 -13 -110 -21 -97 -17
-245 -63 -245 -76 0 -5 8 -10 18 -12 9 -3 -17 -15 -58 -27 -41 -13 -79 -27
-84 -32 -13 -12 -10 -12 124 6 62 8 115 13 117 11 2 -2 -13 -13 -33 -26 -28
-16 -34 -24 -24 -30 12 -7 11 -11 -1 -26 -13 -15 -12 -16 11 -9 14 4 75 29
135 55 123 53 264 100 298 100 22 -1 9 -7 -108 -51 -27 -10 -58 -18 -67 -19
-9 0 -33 -15 -52 -34 -20 -18 -64 -44 -98 -57 -34 -12 -57 -24 -52 -26 6 -2
69 10 141 26 72 17 155 33 184 36 l54 5 -32 -17 c-60 -31 -34 -30 90 4 195 54
222 65 225 91 3 16 10 22 28 22 14 0 54 13 89 30 35 16 101 39 147 49 85 20
561 111 579 111 6 0 8 -9 4 -19 -5 -18 3 -16 79 15 47 19 91 34 97 34 5 0 25
-11 42 -24 31 -23 40 -24 262 -30 196 -5 250 -3 360 13 182 27 211 29 473 46
182 11 238 12 252 2 15 -9 22 -9 32 1 9 9 2 16 -34 32 -24 11 -68 24 -95 30
-32 7 -82 32 -134 67 -81 54 -177 103 -201 103 -7 0 -22 -10 -35 -22 -20 -19
-25 -20 -33 -8 -5 8 -10 32 -10 53 0 35 -2 37 -31 37 -41 0 -123 25 -182 55
-33 18 -63 25 -103 25 l-56 0 7 -32z"/>
<path d="M2250 1970 c-205 -11 -475 -36 -633 -60 -260 -40 -430 -92 -642 -195
-143 -71 -484 -279 -529 -324 l-28 -28 55 -7 c43 -6 67 -3 113 14 130 47 145
52 151 46 3 -3 -2 -16 -13 -27 -24 -27 -313 -284 -363 -322 -20 -15 -37 -32
-39 -37 -5 -13 85 -96 125 -115 19 -9 74 -21 121 -26 191 -19 252 -36 329 -93
24 -18 51 -25 113 -30 82 -8 107 -23 81 -49 -6 -6 -11 -20 -11 -31 0 -20 1
-20 16 2 14 21 17 21 44 7 16 -8 46 -15 66 -15 30 0 44 -7 75 -40 30 -32 40
-37 46 -25 8 13 28 13 153 3 142 -11 146 -12 173 -42 38 -39 48 -24 45 69 l-1
70 33 3 c46 5 111 -22 167 -69 46 -37 71 -50 58 -29 -9 15 1 12 45 -10 38 -20
40 -20 40 -2 0 26 11 34 26 21 8 -6 21 -9 29 -5 18 7 11 52 -12 76 -13 13 -13
10 0 -22 l15 -36 -26 13 c-15 8 -58 28 -97 46 l-70 31 30 14 c17 7 46 13 65
13 44 1 115 -31 132 -58 7 -12 23 -21 36 -21 12 0 39 -7 59 -15 47 -20 53 -12
18 25 -29 30 -59 39 -70 20 -11 -17 -25 0 -25 30 0 23 6 30 31 39 49 17 55 15
119 -44 62 -57 80 -66 80 -40 0 11 11 15 36 15 44 0 37 13 -25 44 -26 14 -53
32 -60 40 -12 14 -7 19 41 40 29 13 84 33 120 44 65 20 67 20 137 2 76 -19 92
-14 39 13 -47 23 -16 21 127 -7 66 -13 122 -22 125 -19 7 7 -53 53 -70 53 -8
0 -23 7 -33 14 -11 9 -32 12 -57 9 -21 -3 -51 -2 -66 1 -54 14 -2 26 112 26
97 0 115 3 135 20 21 17 22 21 9 30 -20 13 -53 13 -68 -2 -9 -9 -12 -9 -12 0
0 25 40 34 91 22 62 -15 70 -9 24 18 -19 12 -35 27 -35 33 0 8 -13 10 -40 6
-39 -5 -55 5 -25 17 12 4 99 18 255 39 l25 3 -27 14 c-40 19 -36 40 6 40 19 0
38 5 41 10 3 6 -2 10 -12 10 -11 0 -28 7 -39 15 -19 14 -19 15 4 21 12 3 22 9
22 11 0 3 -16 23 -35 44 -34 38 -44 59 -26 59 27 0 193 -33 234 -46 27 -9 50
-14 53 -12 2 3 -13 16 -33 29 -20 13 -37 29 -37 34 1 6 26 24 57 40 31 17 57
33 57 36 0 3 -32 10 -71 16 -80 13 -87 16 -69 38 10 12 5 18 -33 34 -48 21
-71 47 -82 94 -8 30 -8 30 68 27 58 -2 68 15 37 65 -30 49 -74 80 -168 120
-220 93 -521 133 -862 115z m275 -385 c279 -81 325 -110 325 -202 0 -33 -8
-45 -77 -113 -155 -152 -332 -261 -541 -334 l-104 -36 -275 0 c-238 0 -289 3
-376 21 -266 53 -518 176 -557 269 -12 28 -11 34 8 58 12 15 30 43 41 62 26
48 45 64 124 101 81 37 69 44 187 -101 187 -230 307 -296 530 -294 189 3 362
86 488 238 60 72 83 127 99 236 15 107 19 120 32 120 5 0 48 -11 96 -25z
m-433 -55 c14 -11 40 -42 58 -70 28 -43 31 -55 22 -75 -12 -25 -88 -86 -163
-129 -43 -24 -48 -25 -63 -11 -8 9 -21 34 -27 55 -11 37 -10 44 21 106 34 70
93 144 115 144 7 0 24 -9 37 -20z"/>
</g>
</svg>
