<?xml version="1.0" encoding="utf-8"?>
<!-- Generator: Adobe Illustrator 21.1.0, SVG Export Plug-In . SVG Version: 6.00 Build 0)  -->
<svg version="1.1" id="Layer_1" xmlns="http://www.w3.org/2000/svg" xmlns:xlink="http://www.w3.org/1999/xlink" x="0px" y="0px"
	 viewBox="0 0 157 87" style="enable-background:new 0 0 157 87;" xml:space="preserve">
<style type="text/css">
	.st0{clip-path:url(#SVGID_2_);fill:#484D59;}
	.st1{fill:#484D59;}
	.st2{font-family:'Baskerville';}
	.st3{font-size:40px;}
	.st4{fill:#FFFFFF;}
	.st5{letter-spacing:-1;}
	.st6{letter-spacing:-2;}
	.st7{fill:none;}
	.st8{font-size:18px;}
</style>
<g>
	<g>
		<defs>
			<rect id="SVGID_1_" x="-25.2" width="247.6" height="91.5"/>
		</defs>
		<clipPath id="SVGID_2_">
			<use xlink:href="#SVGID_1_"  style="overflow:visible;"/>
		</clipPath>
		<path class="st0" d="M78.8,87c24,0,43.5-19.5,43.5-43.5S102.8,0,78.8,0S35.2,19.5,35.2,43.5S54.8,87,78.8,87"/>
	</g>
</g>
<text transform="matrix(1 0 0 1 10.731 57.9253)" class="st1 st2 st3">P</text>
<text transform="matrix(1 0 0 1 33.6108 57.9253)" class="st4 st2 st3">S</text>
<text transform="matrix(1 0 0 1 55.7108 57.9253)" class="st4 st2 st3 st5">S</text>
<text transform="matrix(1 0 0 1 76.2108 57.9253)" class="st4 st2 st3">.</text>
<text transform="matrix(1 0 0 1 86.2108 57.9253)" class="st4 st2 st3 st6">D</text>
<text transform="matrix(1 0 0 1 113.7108 57.9253)" class="st4 st2 st3">.</text>
<text transform="matrix(1 0 0 1 123.6509 57.9253)" class="st1 st2 st3">A</text>
<rect x="-17.5" y="70.2" class="st7" width="194" height="27"/>
<text transform="matrix(0.988 0 0 1 0.1973 82.3072)" class="st1 st2 st8">DIGIT</text>
<text transform="matrix(0.988 0 0 1 54.043 82.3072)" class="st4 st2 st8">AL AG</text>
<text transform="matrix(0.988 0 0 1 108.5811 82.3072)" class="st1 st2 st8">ENCY</text>
</svg>
