<svg width="61px" height="61px" viewBox="0 0 61 61" version="1.1" xmlns="http://www.w3.org/2000/svg" xmlns:xlink="http://www.w3.org/1999/xlink">
    <!-- Generator: Sketch 44.1 (41455) - http://www.bohemiancoding.com/sketch -->
    <desc>Created with Sketch.</desc>
    <defs></defs>
    <g id="Page-1" stroke="none" stroke-width="1" fill="none" fill-rule="evenodd">
        <g id="Desktop" transform="translate(-1179.000000, -14.000000)" stroke="#464B58">
            <g id="Group-2">
                <g id="메뉴" transform="translate(1179.000000, 14.000000)">
                    <circle id="Oval-2" stroke-width="4" cx="30.5" cy="30.5" r="28.5"></circle>
                    <path d="M49.2446892,50.0421569 L48.5155279,49.18008 C52.9694467,45.4054697 55.5664762,42.5590687 56.3066164,40.6408768 C57.0467565,38.722685 56.697824,35.7427829 55.2598187,31.7011705 L50.3843869,31.7011705 C50.0553415,33.5603794 50.6067079,33.9650154 50.3843869,35.1703865 C50.1620659,36.3757575 48.0953406,41.3999529 48.0419016,41.4444373 C46.8370073,42.4474314 39.6637647,51.5964813 31.8727678,50.7344044 C26.8617367,50.1799318 21.2036267,47.2661566 13.3981036,43.1399102 C12.0796872,44.2420756 11.0965465,45.0604747 10.4486814,45.5951075 C9.47688381,46.3970567 9.15258634,46.4294177 9.27399407,46.5729564 C19.3451156,58.479898 37.2413946,60.0340992 49.2446892,50.0421569 Z" id="Oval-2" stroke-width="4" fill="#464B58"></path>
                    <path d="M11.4191725,11.3802053 C7.91593715,15.8769116 5.79424936,19.0843607 5.05410917,21.0025525 C4.31396898,22.9207443 4.18755982,25.5395984 4.67488171,28.8591148 L10.2170394,29.5869591 C11.1402937,24.3702847 11.3361415,23.3179541 11.4191725,23.2488363 C12.0986581,22.6832099 13.3434434,16.6082873 16.3311418,13.987329 C19.3188401,11.3663707 23.8049215,11.4452657 27.1521882,11.3802053 C30.2427817,11.3201339 32.9503804,9.89899397 37.0214318,11.3802053 C41.0924832,12.8614167 43.4451129,15.7861189 46.5365969,17.4203751 C47.8550132,16.3182097 48.838154,15.4998107 49.486019,14.9651779 C50.4578166,14.1632286 50.7990964,14.1160238 50.6607064,13.987329 C39.3464085,3.46567527 23.7818768,2.9568075 11.4191725,11.3802053 Z" id="Oval-2" stroke-width="4" fill="#464B58"></path>
                    <path d="M30.5448897,50 C30.5448897,50 30.5448897,49.7342454 30.5448897,49.2027363 L30.5448897,46.8302614 L30.5448897,30.0598529 C30.417343,30.0598529 29.4427652,30.0598529 27.6211564,30.0598529 C24.8887432,30.0598529 22.6879853,30.0598529 22.15633,30.0598529 C17.3505482,30.0598529 14.7612681,30.0598529 14.3884897,30.0598529 C13.6042664,30.0623882 12.9160201,30.0623882 12.3237506,30.0598529 C11.4353465,30.0560499 10.6047426,29.9271059 10.6047426,30.0598529 C10.6047426,41.0715998 19.5322259,50 30.5448897,50 Z" id="Oval-2" stroke-width="2" fill="#DADBDD"></path>
                    <path d="M30.5,50 C41.2695526,50 50,41.2695526 50,30.5 C50,19.7304474 41.2695526,11 30.5,11 C19.7304474,11 11,19.7304474 11,30.5 C11,34.0635817 11.9559047,37.4038998 13.6252875,40.2785278 C17.000971,46.0913554 23.2940291,50 30.5,50 Z" id="Oval-2" stroke-width="4"></path>
                    <circle id="Oval-2" stroke-width="4" fill="#464B58" cx="30.5" cy="30.5" r="9.5"></circle>
                    <path d="M3.16498347,31 L58.0554626,31" id="Line" stroke-width="4" stroke-linecap="square"></path>
                    <path d="M30,58.0307943 L30,2.73529292" id="Line" stroke-width="4" stroke-linecap="square"></path>
                </g>
            </g>
        </g>
    </g>
</svg>