<svg width="83px" height="3042px" viewBox="0 0 83 3042" version="1.1" xmlns="http://www.w3.org/2000/svg" xmlns:xlink="http://www.w3.org/1999/xlink">
    <!-- Generator: Sketch 44.1 (41455) - http://www.bohemiancoding.com/sketch -->
    <desc>Created with Sketch.</desc>
    <defs></defs>
    <g id="Page-1" stroke="none" stroke-width="1" fill="none" fill-rule="evenodd">
        <g id="Desktop" transform="translate(-2934.000000, -1130.000000)">
            <g id="Group-4" transform="translate(2976.454251, 2651.797031) rotate(-36.000000) translate(-2976.454251, -2651.797031) translate(2053.454251, 1401.797031)">
                <g id="Group-3" transform="translate(1328.428835, 692.201911) rotate(36.000000) translate(-1328.428835, -692.201911) translate(1290.428835, -135.798089)">
                    <path d="M75.2114898,0 C25.0704966,123.323166 -2.08753819e-15,216.159769 0,278.509808 C3.13130729e-15,372.034868 75.2114898,453.777161 75.2114898,629.363552 C75.2114898,804.949942 3.58360632e-16,887.570851 0,1016.39119 C0,1147.18313 75.2114898,1192.7653 75.2114898,1375.05083 C75.2114898,1496.57451 64.6115951,1590.05757 43.4118057,1655.5" id="Line" fill="#9A3A87"></path>
                    <path d="M75.2114898,0 C25.0704966,123.323166 0,216.159769 0,278.509808 C0,372.034868 75.2114898,453.777161 75.2114898,629.363552 C75.2114898,804.949942 0,887.570851 0,1016.39119 C0,1147.18313 75.2114898,1192.7653 75.2114898,1375.05083 C75.2114898,1496.57451 64.6115951,1590.05757 43.4118057,1655.5" id="Line" stroke="#FFFFFF" stroke-width="6" stroke-linecap="square" transform="translate(37.605745, 827.750000) scale(-1, 1) translate(-37.605745, -827.750000) "></path>
                </g>
                <g id="Group-3" transform="translate(518.000000, 1807.201911) rotate(36.000000) translate(-518.000000, -1807.201911) translate(480.000000, 979.201911)">
                    <path d="M75.2114898,0 C25.0704966,123.323166 -2.08753819e-15,216.159769 0,278.509808 C3.13130729e-15,372.034868 75.2114898,453.777161 75.2114898,629.363552 C75.2114898,804.949942 3.58360632e-16,887.570851 0,1016.39119 C0,1147.18313 75.2114898,1192.7653 75.2114898,1375.05083 C75.2114898,1496.57451 64.6115951,1590.05757 43.4118057,1655.5" id="Line" fill="#9A3A87"></path>
                    <path d="M75.2114898,0 C25.0704966,123.323166 0,216.159769 0,278.509808 C0,372.034868 75.2114898,453.777161 75.2114898,629.363552 C75.2114898,804.949942 0,887.570851 0,1016.39119 C0,1147.18313 75.2114898,1192.7653 75.2114898,1375.05083 C75.2114898,1496.57451 64.6115951,1590.05757 43.4118057,1655.5" id="Line" stroke="#FFFFFF" stroke-width="6" stroke-linecap="square" transform="translate(37.605745, 827.750000) scale(-1, 1) translate(-37.605745, -827.750000) "></path>
                </g>
            </g>
        </g>
    </g>
</svg>