<svg width="109px" height="3322px" viewBox="0 0 109 3322" version="1.1" xmlns="http://www.w3.org/2000/svg" xmlns:xlink="http://www.w3.org/1999/xlink">
    <!-- Generator: Sketch 44.1 (41455) - http://www.bohemiancoding.com/sketch -->
    <desc>Created with Sketch.</desc>
    <defs></defs>
    <g id="Page-1" stroke="none" stroke-width="1" fill="none" fill-rule="evenodd" stroke-linecap="square">
        <g id="Group-6" transform="translate(4.000000, 4.000000)">
            <g id="Group-3" transform="translate(50.500000, 828.000000) scale(1, -1) translate(-50.500000, -828.000000) ">
                <path d="M75.2114898,0 C25.0704966,123.323166 -2.08753819e-15,216.159769 0,278.509808 C3.13130729e-15,372.034868 75.2114898,453.777161 75.2114898,629.363552 C75.2114898,804.949942 3.58360632e-16,887.570851 0,1016.39119 C0,1147.18313 75.2114898,1192.7653 75.2114898,1375.05083 C75.2114898,1496.57451 64.6115951,1590.05757 43.4118057,1655.5" id="Line" stroke="#9A3A87" stroke-width="4" fill="#9A3A87"></path>
                <path d="M100.21149,0 C50.0704966,123.323166 25,216.159769 25,278.509808 C25,372.034868 100.21149,453.777161 100.21149,629.363552 C100.21149,804.949942 25,887.570851 25,1016.39119 C25,1147.18313 100.21149,1192.7653 100.21149,1375.05083 C100.21149,1496.57451 89.6115951,1590.05757 68.4118057,1655.5" id="Line" stroke="#596993" stroke-width="4" fill="#596993" transform="translate(62.605745, 827.750000) scale(-1, 1) translate(-62.605745, -827.750000) "></path>
                <path d="M100.21149,0 C50.0704966,123.323166 25,216.159769 25,278.509808 C25,372.034868 100.21149,453.777161 100.21149,629.363552 C100.21149,804.949942 25,887.570851 25,1016.39119 C25,1147.18313 100.21149,1192.7653 100.21149,1375.05083 C100.21149,1496.57451 89.6115951,1590.05757 68.4118057,1655.5" id="Line" stroke="#FFFFFF" stroke-width="6"></path>
                <path d="M75.2114898,0 C25.0704966,123.323166 0,216.159769 0,278.509808 C0,372.034868 75.2114898,453.777161 75.2114898,629.363552 C75.2114898,804.949942 0,887.570851 0,1016.39119 C0,1147.18313 75.2114898,1192.7653 75.2114898,1375.05083 C75.2114898,1496.57451 64.6115951,1590.05757 43.4118057,1655.5" id="Line" stroke="#FFFFFF" stroke-width="6" transform="translate(37.605745, 827.750000) scale(-1, 1) translate(-37.605745, -827.750000) "></path>
            </g>
            <g id="Group-3" transform="translate(0.000000, 1658.000000)">
                <path d="M75.2114898,0 C25.0704966,123.323166 -2.08753819e-15,216.159769 0,278.509808 C3.13130729e-15,372.034868 75.2114898,453.777161 75.2114898,629.363552 C75.2114898,804.949942 3.58360632e-16,887.570851 0,1016.39119 C0,1147.18313 75.2114898,1192.7653 75.2114898,1375.05083 C75.2114898,1496.57451 64.6115951,1590.05757 43.4118057,1655.5" id="Line" stroke="#9A3A87" stroke-width="4" fill="#9A3A87"></path>
                <path d="M100.21149,0 C50.0704966,123.323166 25,216.159769 25,278.509808 C25,372.034868 100.21149,453.777161 100.21149,629.363552 C100.21149,804.949942 25,887.570851 25,1016.39119 C25,1147.18313 100.21149,1192.7653 100.21149,1375.05083 C100.21149,1496.57451 89.6115951,1590.05757 68.4118057,1655.5" id="Line" stroke="#596993" stroke-width="4" fill="#596993" transform="translate(62.605745, 827.750000) scale(-1, 1) translate(-62.605745, -827.750000) "></path>
                <path d="M100.21149,0 C50.0704966,123.323166 25,216.159769 25,278.509808 C25,372.034868 100.21149,453.777161 100.21149,629.363552 C100.21149,804.949942 25,887.570851 25,1016.39119 C25,1147.18313 100.21149,1192.7653 100.21149,1375.05083 C100.21149,1496.57451 89.6115951,1590.05757 68.4118057,1655.5" id="Line" stroke="#FFFFFF" stroke-width="6"></path>
                <path d="M75.2114898,0 C25.0704966,123.323166 0,216.159769 0,278.509808 C0,372.034868 75.2114898,453.777161 75.2114898,629.363552 C75.2114898,804.949942 0,887.570851 0,1016.39119 C0,1147.18313 75.2114898,1192.7653 75.2114898,1375.05083 C75.2114898,1496.57451 64.6115951,1590.05757 43.4118057,1655.5" id="Line" stroke="#FFFFFF" stroke-width="6" transform="translate(37.605745, 827.750000) scale(-1, 1) translate(-37.605745, -827.750000) "></path>
            </g>
        </g>
    </g>
</svg>